<mxfile host="65bd71144e">
    <diagram id="fjN8D4Odn0497USpxgly" name="Page-1">
        <mxGraphModel dx="1291" dy="1609" grid="1" gridSize="10" guides="1" tooltips="1" connect="1" arrows="1" fold="1" page="1" pageScale="1" pageWidth="1169" pageHeight="827" background="#FFFFFF" math="0" shadow="0">
            <root>
                <mxCell id="0"/>
                <mxCell id="1" parent="0"/>
                <mxCell id="161" value="registry api" style="shape=umlFrame;whiteSpace=wrap;html=1;verticalAlign=top;width=90;height=30;swimlaneFillColor=#ffffff;" parent="1" vertex="1">
                    <mxGeometry x="20" y="-800" width="1020" height="860" as="geometry"/>
                </mxCell>
                <mxCell id="113" value="&lt;p style=&quot;margin: 0px ; margin-top: 4px ; text-align: center&quot;&gt;&lt;i&gt;&amp;lt;&amp;lt;interface&amp;gt;&amp;gt;&lt;/i&gt;&lt;br&gt;&lt;b&gt;registry base&lt;/b&gt;&lt;br&gt;&lt;/p&gt;&lt;hr size=&quot;1&quot;&gt;&lt;p style=&quot;margin: 0px ; margin-left: 4px&quot;&gt;&lt;br&gt;&lt;/p&gt;&lt;hr size=&quot;1&quot;&gt;&lt;p style=&quot;margin: 0px ; margin-left: 4px&quot;&gt;void registry_init(void);&lt;/p&gt;&lt;p style=&quot;margin: 0px ; margin-left: 4px&quot;&gt;int registry_register_schema(registry_root_group_id_t root_group_id, registry_schema_t *schema);&lt;/p&gt;&lt;p style=&quot;margin: 0px ; margin-left: 4px&quot;&gt;int registry_register_schema_instance(registry_root_group_id_t root_group_id, int schema_id, registry_instance_t *instance);&lt;/p&gt;&lt;p style=&quot;margin: 0px ; margin-left: 4px&quot;&gt;int registry_set_value(const registry_path_t path, const void *val, int val_len);&lt;/p&gt;&lt;p style=&quot;margin: 0px ; margin-left: 4px&quot;&gt;registry_value_t *registry_get_value(const registry_path_t path, registry_value_t *value);&lt;/p&gt;&lt;p style=&quot;margin: 0px ; margin-left: 4px&quot;&gt;int registry_commit(const registry_path_t path);&lt;/p&gt;&lt;p style=&quot;margin: 0px ; margin-left: 4px&quot;&gt;int registry_export(int (*export_func)(&lt;/p&gt;&lt;p style=&quot;margin: 0px ; margin-left: 4px&quot;&gt;&amp;nbsp; &amp;nbsp; const registry_path_t path,&lt;/p&gt;&lt;p style=&quot;margin: 0px ; margin-left: 4px&quot;&gt;&amp;nbsp; &amp;nbsp; const registry_schema_t *schema,&lt;/p&gt;&lt;p style=&quot;margin: 0px ; margin-left: 4px&quot;&gt;&amp;nbsp; &amp;nbsp; const registry_instance_t *instance,&lt;/p&gt;&lt;p style=&quot;margin: 0px ; margin-left: 4px&quot;&gt;&amp;nbsp; &amp;nbsp; const registry_schema_item_t *meta,&lt;/p&gt;&lt;p style=&quot;margin: 0px ; margin-left: 4px&quot;&gt;&amp;nbsp; &amp;nbsp; const registry_value_t *value,&lt;/p&gt;&lt;p style=&quot;margin: 0px ; margin-left: 4px&quot;&gt;&amp;nbsp; &amp;nbsp; void *context&lt;/p&gt;&lt;p style=&quot;margin: 0px ; margin-left: 4px&quot;&gt;&amp;nbsp; ),&lt;/p&gt;&lt;p style=&quot;margin: 0px ; margin-left: 4px&quot;&gt;&amp;nbsp; const registry_path_t path, int recursion_depth, void *context&lt;/p&gt;&lt;p style=&quot;margin: 0px ; margin-left: 4px&quot;&gt;);&lt;/p&gt;" style="verticalAlign=top;align=left;overflow=fill;fontSize=12;fontFamily=Helvetica;html=1;" parent="1" vertex="1">
                    <mxGeometry x="45" y="-270" width="620" height="300" as="geometry"/>
                </mxCell>
                <mxCell id="117" value="&lt;p style=&quot;margin: 0px ; margin-top: 4px ; text-align: center&quot;&gt;&lt;i&gt;&amp;lt;&amp;lt;interface&amp;gt;&amp;gt;&lt;/i&gt;&lt;br&gt;&lt;b&gt;registry store&lt;/b&gt;&lt;br&gt;&lt;/p&gt;&lt;hr size=&quot;1&quot;&gt;&lt;p style=&quot;margin: 0px ; margin-left: 4px&quot;&gt;&lt;br&gt;&lt;/p&gt;&lt;hr size=&quot;1&quot;&gt;&lt;p style=&quot;margin: 0px ; margin-left: 4px&quot;&gt;void registry_init_store(void);&lt;/p&gt;&lt;p style=&quot;margin: 0px ; margin-left: 4px&quot;&gt;void registry_register_store_src(registry_store_t *src);&lt;/p&gt;&lt;p style=&quot;margin: 0px ; margin-left: 4px&quot;&gt;void registry_register_store_dst(registry_store_t *dst);&lt;/p&gt;&lt;p style=&quot;margin: 0px ; margin-left: 4px&quot;&gt;int registry_load(void);&lt;/p&gt;&lt;p style=&quot;margin: 0px ; margin-left: 4px&quot;&gt;int registry_store_save(void);&lt;/p&gt;&lt;p style=&quot;margin: 0px ; margin-left: 4px&quot;&gt;int registry_store_save_one(const registry_path_t path, void *context);&lt;/p&gt;" style="verticalAlign=top;align=left;overflow=fill;fontSize=12;fontFamily=Helvetica;html=1;" parent="1" vertex="1">
                    <mxGeometry x="627.5" y="-750" width="380" height="170" as="geometry"/>
                </mxCell>
                <mxCell id="162" value="&lt;b&gt;registry&lt;/b&gt;" style="rounded=0;whiteSpace=wrap;html=1;" parent="1" vertex="1">
                    <mxGeometry x="770" y="-150" width="120" height="60" as="geometry"/>
                </mxCell>
                <mxCell id="163" value="" style="endArrow=block;dashed=1;endFill=0;endSize=12;html=1;edgeStyle=orthogonalEdgeStyle;rounded=0;" parent="1" source="162" target="113" edge="1">
                    <mxGeometry width="160" relative="1" as="geometry">
                        <mxPoint x="480" y="-400" as="sourcePoint"/>
                        <mxPoint x="730" y="-89.90909090909099" as="targetPoint"/>
                    </mxGeometry>
                </mxCell>
                <mxCell id="164" value="" style="endArrow=block;dashed=1;endFill=0;endSize=12;html=1;edgeStyle=orthogonalEdgeStyle;rounded=0;" parent="1" source="162" target="117" edge="1">
                    <mxGeometry width="160" relative="1" as="geometry">
                        <mxPoint x="580" y="-340" as="sourcePoint"/>
                        <mxPoint x="405" y="-520" as="targetPoint"/>
                        <Array as="points">
                            <mxPoint x="818" y="-280"/>
                            <mxPoint x="818" y="-280"/>
                        </Array>
                    </mxGeometry>
                </mxCell>
                <mxCell id="165" value="&lt;p style=&quot;margin: 0px ; margin-top: 4px ; text-align: center&quot;&gt;&lt;i&gt;&amp;lt;&amp;lt;interface&amp;gt;&amp;gt;&lt;/i&gt;&lt;br&gt;&lt;b&gt;registry get / set convenience functions&lt;/b&gt;&lt;br&gt;&lt;/p&gt;&lt;hr size=&quot;1&quot;&gt;&lt;p style=&quot;margin: 0px ; margin-left: 4px&quot;&gt;&lt;br&gt;&lt;/p&gt;&lt;hr size=&quot;1&quot;&gt;&lt;p style=&quot;margin: 0px 0px 0px 4px&quot;&gt;&lt;span&gt;int registry_set_string(const registry_path_t path, const char *val);&lt;/span&gt;&lt;br&gt;&lt;/p&gt;&lt;p style=&quot;margin: 0px 0px 0px 4px&quot;&gt;int registry_set_bool(const registry_path_t path, bool val);&lt;/p&gt;&lt;p style=&quot;margin: 0px 0px 0px 4px&quot;&gt;int registry_set_uint8(const registry_path_t path, uint8_t val);&lt;/p&gt;&lt;p style=&quot;margin: 0px 0px 0px 4px&quot;&gt;int registry_set_uint16(const registry_path_t path, uint16_t val);&lt;/p&gt;&lt;p style=&quot;margin: 0px 0px 0px 4px&quot;&gt;int registry_set_uint32(const registry_path_t path, uint32_t val);&lt;/p&gt;&lt;p style=&quot;margin: 0px 0px 0px 4px&quot;&gt;int registry_set_uint64(const registry_path_t path, uint64_t val);&lt;/p&gt;&lt;p style=&quot;margin: 0px 0px 0px 4px&quot;&gt;int registry_set_int8(const registry_path_t path, int8_t val);&lt;/p&gt;&lt;p style=&quot;margin: 0px 0px 0px 4px&quot;&gt;int registry_set_int16(const registry_path_t path, int16_t val);&lt;/p&gt;&lt;p style=&quot;margin: 0px 0px 0px 4px&quot;&gt;int registry_set_int32(const registry_path_t path, int32_t val);&lt;/p&gt;&lt;p style=&quot;margin: 0px 0px 0px 4px&quot;&gt;int registry_set_int64(const registry_path_t path, int64_t val);&lt;/p&gt;&lt;p style=&quot;margin: 0px 0px 0px 4px&quot;&gt;int registry_set_float32(const registry_path_t path, float val);&lt;/p&gt;&lt;p style=&quot;margin: 0px 0px 0px 4px&quot;&gt;int registry_set_float64(const registry_path_t path, double val);&lt;/p&gt;&lt;p style=&quot;margin: 0px 0px 0px 4px&quot;&gt;&lt;br&gt;&lt;/p&gt;&lt;p style=&quot;margin: 0px ; margin-left: 4px&quot;&gt;char *registry_get_string(const registry_path_t path, char *buf, int buf_len);&lt;/p&gt;&lt;p style=&quot;margin: 0px ; margin-left: 4px&quot;&gt;bool registry_get_bool(const registry_path_t path);&lt;/p&gt;&lt;p style=&quot;margin: 0px ; margin-left: 4px&quot;&gt;uint8_t registry_get_uint8(const registry_path_t path);&lt;/p&gt;&lt;p style=&quot;margin: 0px ; margin-left: 4px&quot;&gt;uint16_t registry_get_uint16(const registry_path_t path);&lt;/p&gt;&lt;p style=&quot;margin: 0px ; margin-left: 4px&quot;&gt;uint32_t registry_get_uint32(const registry_path_t path);&lt;/p&gt;&lt;p style=&quot;margin: 0px ; margin-left: 4px&quot;&gt;uint64_t registry_get_uint64(const registry_path_t path);&lt;/p&gt;&lt;p style=&quot;margin: 0px ; margin-left: 4px&quot;&gt;int8_t registry_get_int8(const registry_path_t path);&lt;/p&gt;&lt;p style=&quot;margin: 0px ; margin-left: 4px&quot;&gt;int16_t registry_get_int16(const registry_path_t path);&lt;/p&gt;&lt;p style=&quot;margin: 0px ; margin-left: 4px&quot;&gt;int32_t registry_get_int32(const registry_path_t path);&lt;/p&gt;&lt;p style=&quot;margin: 0px ; margin-left: 4px&quot;&gt;int64_t registry_get_int64(const registry_path_t path);&lt;/p&gt;&lt;p style=&quot;margin: 0px ; margin-left: 4px&quot;&gt;float registry_get_float32(const registry_path_t path);&lt;/p&gt;&lt;p style=&quot;margin: 0px ; margin-left: 4px&quot;&gt;double registry_get_float64(const registry_path_t path);&lt;/p&gt;" style="verticalAlign=top;align=left;overflow=fill;fontSize=12;fontFamily=Helvetica;html=1;" parent="1" vertex="1">
                    <mxGeometry x="45" y="-760" width="395" height="440" as="geometry"/>
                </mxCell>
                <mxCell id="166" value="" style="endArrow=block;dashed=1;endFill=0;endSize=12;html=1;edgeStyle=orthogonalEdgeStyle;rounded=0;" parent="1" source="113" target="165" edge="1">
                    <mxGeometry width="160" relative="1" as="geometry">
                        <mxPoint x="760.0000000000002" y="-155" as="sourcePoint"/>
                        <mxPoint x="560" y="-155" as="targetPoint"/>
                        <Array as="points">
                            <mxPoint x="280" y="-290"/>
                            <mxPoint x="280" y="-290"/>
                        </Array>
                    </mxGeometry>
                </mxCell>
                <mxCell id="167" value="&lt;p style=&quot;margin: 0px ; margin-top: 4px ; text-align: center&quot;&gt;&lt;i&gt;&amp;lt;&amp;lt;interface&amp;gt;&amp;gt;&lt;/i&gt;&lt;br&gt;&lt;b&gt;registry schemas&lt;/b&gt;&lt;br&gt;&lt;/p&gt;&lt;hr size=&quot;1&quot;&gt;&lt;p style=&quot;margin: 0px ; margin-left: 4px&quot;&gt;&lt;br&gt;&lt;/p&gt;&lt;hr size=&quot;1&quot;&gt;&lt;p style=&quot;margin: 0px ; margin-left: 4px&quot;&gt;void registry_schemas_init(void);&lt;/p&gt;" style="verticalAlign=top;align=left;overflow=fill;fontSize=12;fontFamily=Helvetica;html=1;" parent="1" vertex="1">
                    <mxGeometry x="600" y="-520" width="190" height="100" as="geometry"/>
                </mxCell>
                <mxCell id="168" value="" style="endArrow=block;dashed=1;endFill=0;endSize=12;html=1;edgeStyle=orthogonalEdgeStyle;rounded=0;" parent="1" source="162" target="167" edge="1">
                    <mxGeometry width="160" relative="1" as="geometry">
                        <mxPoint x="827.5" y="-180" as="sourcePoint"/>
                        <mxPoint x="827.5" y="-570" as="targetPoint"/>
                        <Array as="points">
                            <mxPoint x="818" y="-350"/>
                            <mxPoint x="695" y="-350"/>
                        </Array>
                    </mxGeometry>
                </mxCell>
            </root>
        </mxGraphModel>
    </diagram>
</mxfile>